<svg width="131" height="73" viewBox="0 0 131 73" fill="none" xmlns="http://www.w3.org/2000/svg">
<path d="M33.2616 11.3336C34.2935 11.6147 34.7285 12.3608 34.8975 13.2582C35.0797 14.2206 35.2115 15.1985 35.2786 16.1752C35.3781 17.6121 35.4021 19.0538 35.4596 20.4931C35.4692 20.7261 35.4824 20.958 35.5004 21.3004C36.6185 20.8102 37.6408 20.3573 38.5708 19.7109C38.8429 19.5223 38.7769 19.2544 38.765 18.9985C38.6943 17.4824 38.8285 15.9866 39.23 14.5233C39.3618 14.0428 39.5727 13.5838 39.7717 13.1249C39.8484 12.9495 39.9754 12.7873 40.1072 12.6455C40.3973 12.3332 40.7544 12.2371 41.0456 12.38C41.398 12.5542 41.4219 12.875 41.4124 13.2174C41.4004 13.6199 41.41 14.0223 41.41 14.4524C41.525 14.408 41.5706 14.4008 41.6029 14.3755C42.6084 13.579 43.5085 13.6559 44.3054 14.6699C44.6806 15.1468 44.9874 15.6815 45.2906 16.2101C45.7891 17.0811 46.2553 17.9689 46.7419 18.8471C46.8546 19.0502 46.9912 19.2388 47.1722 19.5199C47.28 19.2712 47.3615 19.1259 47.4083 18.9697C47.6875 18.0518 47.9667 17.1327 48.2316 16.2101C48.6846 14.6314 49.3042 13.1201 50.0257 11.6496C50.082 11.5342 50.1539 11.4249 50.227 11.318C50.2486 11.2868 50.3013 11.2771 50.3804 11.2375C50.7735 11.4081 50.897 11.813 50.9449 12.1734C51.066 13.078 51.1786 13.9935 51.1618 14.903C51.1439 15.8148 50.9917 16.7267 50.8502 17.6313C50.6573 18.8592 50.4356 20.0846 50.1899 21.3028C50.0952 21.7689 49.9442 22.2363 49.7429 22.6664C48.9603 24.3387 47.2513 24.6919 45.8682 23.4749C45.0749 22.7757 44.4768 21.9143 43.9411 21.0109C43.6643 20.5435 43.409 20.063 43.0854 19.4839C43.0231 19.7242 42.9656 19.8707 42.95 20.0221C42.775 21.7389 42.6372 23.4569 42.8241 25.1845C42.8541 25.4608 42.8397 25.7564 42.7786 26.0267C42.6372 26.6574 42.2381 27.0719 41.5969 27.1944C40.933 27.3206 40.3721 27.0935 40.0197 26.5193C39.8196 26.1925 39.6794 25.8056 39.6111 25.4272C39.3678 24.0972 39.1676 22.7589 38.9507 21.4241C38.9196 21.2355 38.8884 21.0469 38.8477 20.8054C38.7302 20.8787 38.6595 20.9147 38.5972 20.964C37.7451 21.6392 36.9133 22.3444 36.0337 22.9799C35.6861 23.231 35.5615 23.4653 35.5866 23.887C35.758 26.6814 36.1679 29.4423 36.6784 32.191C36.9613 33.7132 37.316 35.2282 37.2501 36.7936C37.2345 37.1624 37.1818 37.5312 37.1135 37.8953C37.0643 38.1572 36.9421 38.3987 36.6461 38.4695C36.3453 38.5404 36.126 38.3758 35.9857 38.1488C35.5639 37.464 35.0605 36.8032 34.7837 36.0607C34.1964 34.4905 33.6631 32.8927 33.2365 31.272C32.781 29.5444 32.4742 27.7783 32.1039 26.0279C32.0644 25.8393 32.0284 25.6494 31.9853 25.4272C31.4052 25.6699 30.8551 25.9005 30.1876 26.1793C30.0797 26.9085 29.9551 27.7651 29.8232 28.6217C29.7441 29.1395 29.665 29.6573 29.5596 30.1703C29.5069 30.4226 29.4254 30.6809 29.3019 30.9056C29.0059 31.4438 28.4246 31.7021 27.8686 31.5831C27.2945 31.4594 26.8822 31.0101 26.8007 30.4046C26.7804 30.2544 26.7744 30.0982 26.7863 29.9468C27.2202 24.6307 27.8817 19.3517 29.4409 14.2266C29.9563 12.5314 30.6622 10.9107 31.4627 9.33329C31.6689 8.92722 31.905 8.52475 32.1926 8.17514C32.3903 7.93366 32.6768 7.71981 32.968 7.61049C33.6308 7.363 34.1125 7.78469 33.9699 8.47429C33.8201 9.19993 33.6128 9.91356 33.4306 10.6332C33.3779 10.841 33.3287 11.0513 33.2616 11.3336ZM30.5519 23.7512C30.8923 23.5494 31.12 23.3872 31.3693 23.2743C31.7 23.1241 31.7779 22.8922 31.7552 22.545C31.7036 21.7449 31.694 20.9412 31.6641 20.1398C31.6581 19.9789 31.6389 19.8191 31.6269 19.6581C31.1248 20.9568 30.7736 22.2771 30.5519 23.7512Z" fill="#000000"/>
<path d="M13.3765 5.46003C13.0398 5.54653 12.7725 5.61501 12.5053 5.68469C9.34732 6.50885 6.19177 7.34022 3.03143 8.15116C2.5077 8.28572 1.9612 8.34699 1.42189 8.39985C1.16902 8.42508 0.896969 8.38063 0.652483 8.30854C0.410394 8.23646 0.252197 8.03823 0.270174 7.76191C0.285754 7.51682 0.433164 7.38467 0.666864 7.30297C6.17259 5.37834 11.7071 3.54621 17.3926 2.21146C19.9333 1.61436 22.4729 1.01006 25.0208 0.443002C25.9112 0.244772 26.8233 0.146257 27.7281 0.0117008C27.8935 -0.0123271 28.0661 0.00809665 28.3309 0.00809665C28.2279 0.195514 28.1907 0.356502 28.09 0.426182C27.7161 0.686885 27.3362 0.945186 26.9311 1.15303C25.1622 2.06489 23.2794 2.6812 21.3751 3.22904C19.3053 3.82493 17.2272 4.39439 15.1539 4.97587C14.9477 5.03354 14.7452 5.10442 14.5175 5.1765C14.5079 5.3447 14.4911 5.49367 14.4923 5.64144C14.5391 14.897 14.8303 24.1502 14.6925 33.4057C14.6493 36.3131 14.4791 39.2072 13.9087 42.0666C13.5791 43.7185 13.1548 45.3416 12.4717 46.8866C11.9468 48.0736 11.278 49.1656 10.3396 50.0763C9.6757 50.7202 8.93145 51.25 8.06377 51.578C6.60284 52.1307 5.28214 51.8664 4.11843 50.8308C3.49044 50.2721 3.04341 49.5741 2.6611 48.834C2.03671 47.6242 1.62803 46.3363 1.31164 45.0184C0.493088 41.6124 -0.0606015 38.1728 0.00531385 34.6552C0.0424661 32.7269 0.247403 30.8215 0.845435 28.9786C0.986853 28.5449 1.17501 28.1244 1.36077 27.7075C1.41351 27.5873 1.53575 27.4984 1.62563 27.3963C1.67237 27.4083 1.71791 27.4203 1.76465 27.4324C1.76465 27.6126 1.78023 27.794 1.76226 27.9718C1.16662 33.6952 2.1194 39.2397 3.73732 44.6952C4.02615 45.6684 4.50673 46.591 4.96454 47.5029C5.16349 47.8993 5.50745 48.2369 5.82983 48.5553C6.19297 48.9133 6.6376 48.9446 7.09661 48.7103C7.85044 48.3283 8.46165 47.7804 8.9698 47.1112C9.60978 46.2679 10.052 45.3224 10.39 44.3252C11.121 42.1615 11.4854 39.9245 11.6675 37.655C11.7526 36.5894 11.7946 35.519 11.8221 34.4509C11.9624 28.8861 12.069 23.3212 12.2344 17.7563C12.3243 14.7024 12.4489 11.6472 12.8588 8.6149C12.9787 7.72947 13.1632 6.85365 13.3166 5.97183C13.3406 5.82766 13.3502 5.68229 13.3765 5.46003Z" fill="#000000"/>
<path d="M56.1571 21.5658C55.6477 21.6547 55.118 21.7472 54.5392 21.8494C54.5188 22.0944 54.4948 22.3275 54.4792 22.563C54.3953 23.7812 54.3222 25.0006 54.2264 26.2176C54.2012 26.5408 54.1437 26.8712 54.0358 27.1751C53.8189 27.7843 53.252 28.1339 52.6672 28.069C52.0523 28.0017 51.5766 27.5127 51.5023 26.8436C51.4759 26.6069 51.4855 26.363 51.5046 26.1251C51.7695 22.909 51.9685 19.6832 52.5329 16.5019C52.8301 14.8296 53.2041 13.1705 53.5588 11.5077C53.6223 11.2122 53.7362 10.9227 53.8608 10.6463C53.9939 10.3496 54.2323 10.185 54.5751 10.155C54.7549 10.1393 54.9442 10.0721 55.0988 9.97716C55.7592 9.56989 56.4399 9.65038 56.8726 10.2895C57.1242 10.6596 57.334 11.0969 57.4202 11.533C57.6971 12.9218 57.92 14.3202 58.1393 15.7198C58.3251 16.9044 58.4737 18.095 58.6427 19.282C58.6607 19.4069 58.705 19.5271 58.741 19.6664C59.5979 19.5655 60.3217 19.1738 61.06 18.7666C61.0612 19.4201 60.758 19.6965 58.9219 20.7549C58.9471 20.9363 58.9663 21.1465 59.0046 21.3532C59.3462 23.1961 59.7045 25.0367 60.0233 26.8832C60.0844 27.234 60.0401 27.6233 59.9586 27.9741C59.8747 28.3357 59.5859 28.5628 59.2012 28.5988C58.8081 28.636 58.5228 28.4366 58.3634 28.0942C58.2076 27.7602 58.083 27.4094 57.9691 27.0574C57.3963 25.2745 56.8306 23.4893 56.2613 21.7052C56.2482 21.6655 56.2098 21.6355 56.1571 21.5658ZM55.2654 15.8292C54.8208 17.3045 54.7513 18.7954 54.6362 20.3813C55.106 20.3176 55.4979 20.2635 55.9054 20.2083C55.6849 18.7005 55.4752 17.2648 55.2654 15.8292Z" fill="#000000"/>
<path d="M18.9556 14.2541C19.429 13.8805 19.8413 13.4744 20.3231 13.1885C22.2334 12.0532 24.127 12.6935 24.9635 14.7467C25.6059 16.3241 25.7869 18.0001 25.8707 19.6784C25.9654 21.5778 25.987 23.4929 25.5208 25.3514C25.3087 26.1972 24.9959 27.0646 24.5237 27.7879C23.3732 29.5515 21.4173 29.8014 19.7634 28.5051C18.8957 27.8251 18.2929 26.9409 17.8375 25.9509C16.9458 24.0155 16.5611 21.9671 16.651 19.8502C16.7301 18.0145 16.9578 16.1884 17.5187 14.4223C17.557 14.3022 17.5522 14.1532 17.6229 14.0607C17.7871 13.8481 17.9693 13.5285 18.1742 13.5045C18.3552 13.4828 18.5829 13.794 18.7759 13.9742C18.8562 14.0523 18.9017 14.1688 18.9556 14.2541ZM21.965 25.713C22.2442 25.1196 22.5079 24.6594 22.684 24.168C23.2281 22.6591 23.3827 21.0781 23.3 19.4946C23.2377 18.304 23.0723 17.1038 22.8003 15.9433C22.5582 14.9065 22.1004 14.7659 21.1081 15.1888C20.9343 15.2621 20.7677 15.3558 20.6047 15.4507C19.6459 16.0118 18.9424 16.7038 19.2481 17.964C19.3212 18.2668 19.2864 18.5936 19.3128 18.9083C19.459 20.6528 19.7814 22.3539 20.5688 23.9362C20.8804 24.5597 21.2219 25.1604 21.965 25.713Z" fill="#000000"/>
<path d="M70.9925 7.65053C71.2514 7.34898 71.394 7.15435 71.5642 6.98976C72.6081 5.98059 73.8149 5.27897 75.2698 5.06152C77.8621 4.67467 79.8552 6.30737 79.8971 8.93842C79.9115 9.82145 79.7988 10.7369 79.5651 11.5875C79.1277 13.1842 78.5596 14.746 78.0443 16.321C77.9304 16.6682 77.807 17.013 77.6584 17.4431C78.0994 17.49 78.4613 17.5248 78.8221 17.5668C79.794 17.681 80.7732 17.7567 81.7355 17.9237C82.8861 18.1231 83.9491 18.5676 84.8623 19.3257C84.9234 19.3762 85.0049 19.4038 85.1715 19.4927C85.1428 19.1779 85.1296 18.9473 85.1008 18.7202C84.8012 16.3534 84.6598 13.9795 84.8935 11.5995C84.9834 10.6889 85.1416 9.78421 85.2914 8.88076C85.3405 8.58161 85.4436 8.28847 85.5466 8.00254C85.9793 6.80475 86.5138 6.46595 87.8033 6.58729C87.9532 6.41069 88.1161 6.21005 88.2887 6.01903C89.1852 5.02668 90.2051 4.23496 91.5749 4.03553C93.218 3.79645 94.5507 4.7828 94.8263 6.42751C94.963 7.24446 94.8467 8.03618 94.619 8.81949C94.2103 10.2251 93.5128 11.4722 92.5576 12.5763C92.3048 12.8694 92.0519 13.1625 91.7727 13.4869C91.9416 13.6119 92.0543 13.7092 92.1801 13.7861C93.9922 14.8877 95.6245 16.2345 97.288 17.538C98.2551 18.2961 99.094 19.1815 99.7556 20.2231C99.9881 20.5896 100.179 20.9848 100.351 21.3837C100.428 21.5603 100.414 21.7777 100.454 22.0841C100.174 21.9904 100.007 21.9555 99.8599 21.8835C97.4953 20.7193 95.1391 19.5347 92.9412 18.0714C92.1657 17.5548 91.4419 16.9505 90.754 16.3198C90.3776 15.9738 90.0744 15.5197 89.8287 15.0643C89.2822 14.0492 89.4872 13.2719 90.4531 12.6567C92.0063 11.668 92.6164 10.2155 92.596 8.43624C92.59 7.95568 92.5097 7.74784 92.2161 7.2841C91.9788 7.41145 91.7199 7.51837 91.4982 7.67576C90.6581 8.27285 90.072 9.08259 89.6741 10.0221C88.8508 11.9683 88.5128 14.0047 88.7477 16.1048C89.1552 19.7486 89.6118 23.3876 90.0445 27.029C90.0828 27.3534 90.12 27.6814 90.114 28.007C90.0972 28.9008 89.5735 29.5856 88.8101 29.7478C87.9963 29.9208 87.2533 29.5003 86.8793 28.6509C86.8194 28.514 86.7667 28.3734 86.666 28.1247C86.6001 28.3025 86.5557 28.3842 86.539 28.4707C85.6677 32.8498 84.2835 37.0799 82.8357 41.292C80.9841 46.6779 79.0702 52.0421 77.2713 57.446C75.9829 61.3169 74.7641 65.2118 73.3295 69.0334C72.976 69.9741 72.6967 70.9377 72.6081 71.948C72.5913 72.1415 72.5997 72.4058 72.3492 72.3961C72.203 72.3901 72.0208 72.2111 71.9285 72.0634C71.4456 71.2873 71.2466 70.4174 71.1687 69.5164C70.941 66.8986 71.261 64.3288 71.8866 61.7926C72.7243 58.3975 73.882 55.1021 75.0134 51.7994C76.738 46.762 78.5237 41.7461 80.2339 36.7039C81.2502 33.7064 82.1574 30.6717 82.7063 27.5468C82.8837 26.5401 83.0035 25.5117 83.0167 24.4917C83.0395 22.6932 82.4858 22.036 80.724 21.7333C79.6538 21.5495 78.5584 21.5218 77.4798 21.3813C76.8782 21.3032 76.267 21.2023 75.6977 21.004C74.1073 20.449 73.3367 19.1239 73.6232 17.4563C73.7262 16.858 73.9192 16.2717 74.1121 15.6939C74.5675 14.3279 75.0637 12.9751 75.5119 11.6067C75.6941 11.0493 75.8103 10.4678 75.929 9.89113C75.9841 9.62082 75.9733 9.33609 75.9949 9.00931C75.7996 8.99609 75.6521 8.95765 75.5167 8.98047C73.9851 9.24959 72.6836 9.93919 71.6493 11.119C71.4204 11.3797 71.3149 11.6416 71.3605 12.0068C72.221 18.8271 72.9149 25.6691 74.1025 32.4473C74.4753 34.5726 74.6874 36.7291 74.8959 38.8784C74.9798 39.7386 74.8755 40.6192 74.8144 41.4878C74.7917 41.8062 74.6922 42.1378 74.5508 42.4249C74.2547 43.0232 73.5992 43.1133 73.1498 42.6244C72.9472 42.4033 72.7938 42.1282 72.6536 41.8591C72.1347 40.8655 71.8422 39.7927 71.5582 38.7138C70.0577 32.9988 69.2452 27.1636 68.5369 21.3104C68.1869 18.4246 67.9484 15.5353 68.0096 12.6243C68.0431 11.0252 68.2013 9.44301 68.5525 7.8836C68.6328 7.52438 68.7526 7.16877 68.8988 6.82998C68.9911 6.61613 69.1385 6.40708 69.3087 6.2473C69.8612 5.7295 70.5719 5.92532 70.7852 6.64736C70.8667 6.91648 70.9014 7.1964 70.9925 7.65053Z" fill="#000000"/>
<path d="M125.428 11.706C125.284 11.8922 125.13 12.0712 124.999 12.2658C124.356 13.2257 123.728 14.1965 123.078 15.1528C122.686 15.7295 122.298 16.3145 121.85 16.8456C121.516 17.2408 121.126 17.6108 120.695 17.8944C119.574 18.6344 118.251 18.4867 117.277 17.558C117.011 17.3045 116.788 17.0053 116.488 16.6605C116.46 16.848 116.419 16.9777 116.425 17.1051C116.64 22.1906 116.554 27.2749 116.373 32.3592C116.358 32.7496 116.314 33.1461 116.22 33.5245C116 34.4136 115.329 34.9614 114.511 34.9722C113.663 34.983 112.963 34.4328 112.747 33.5125C112.633 33.0272 112.57 32.519 112.57 32.0216C112.571 29.2283 112.522 26.4315 112.637 23.6431C112.812 19.4346 113.097 15.2309 113.36 11.026C113.432 9.87265 113.584 8.72412 113.723 7.57679C113.759 7.27884 113.847 6.97489 113.973 6.70097C114.65 5.22806 116.563 5.02502 117.487 6.35617C117.776 6.77185 117.951 7.29686 118.064 7.79664C118.316 8.92355 118.479 10.0721 118.716 11.2038C118.845 11.8213 119.043 12.4256 119.22 13.0323C119.26 13.1693 119.341 13.2954 119.443 13.5081C119.634 13.2354 119.781 13.0275 119.925 12.8161C120.733 11.6255 121.51 10.4121 122.359 9.25033C122.859 8.56794 123.42 7.91318 124.042 7.34131C126.068 5.48155 128.391 6.14712 129.056 8.81302C129.349 9.98919 129.485 11.2218 129.545 12.4364C129.677 15.1396 129.75 17.8463 129.786 20.5519C129.861 26.3162 130.029 32.0745 130.488 37.8219C130.62 39.4751 130.813 41.1246 130.922 42.7789C130.997 43.931 131.021 45.0904 130.983 46.2437C130.966 46.7507 130.797 47.2769 130.59 47.7467C130.289 48.4267 129.703 48.5528 129.081 48.1407C128.574 47.8055 128.253 47.313 127.998 46.7735C127.573 45.8773 127.325 44.9222 127.208 43.9466C126.965 41.9103 126.734 39.8703 126.569 37.8267C126.092 31.9279 125.941 26.0146 125.867 20.0977C125.834 17.5448 125.721 14.993 125.639 12.44C125.632 12.207 125.596 11.9751 125.573 11.742C125.524 11.7312 125.476 11.718 125.428 11.706Z" fill="#000000"/>
<path d="M105.828 19.1473C105.969 18.6728 106.154 18.2066 106.241 17.7225C106.603 15.7053 106.914 13.6798 107.287 11.665C107.485 10.5946 107.746 9.53496 108.025 8.48373C108.118 8.13653 108.304 7.78812 108.532 7.5094C109.123 6.78616 110.136 6.82701 110.643 7.61032C110.87 7.96353 111.009 8.40444 111.08 8.82373C111.287 10.0564 111.271 11.2974 111.109 12.5396C110.819 14.7682 110.498 16.992 109.914 19.1665C109.762 19.7336 109.593 20.3067 109.336 20.8317C109.072 21.3735 108.753 21.9141 108.351 22.3587C107.324 23.4952 105.875 23.6766 104.555 22.8981C103.736 22.4151 103.091 21.7339 102.503 20.9999C100.844 18.9323 99.8817 16.5427 99.304 13.9801C99.0248 12.7403 98.8666 11.4836 99.0512 10.2149C99.1063 9.8329 99.2166 9.44365 99.3843 9.09765C99.6025 8.64472 99.9776 8.34677 100.519 8.34918C101.059 8.35158 101.341 8.7132 101.539 9.1421C101.702 9.49651 101.809 9.87735 101.931 10.2498C102.543 12.1132 103.108 13.9933 103.784 15.8327C104.119 16.7457 104.647 17.5891 105.112 18.4505C105.253 18.7124 105.474 18.9311 105.658 19.169C105.715 19.1593 105.772 19.1533 105.828 19.1473Z" fill="#000000"/>
</svg>
